<mxfile host="app.diagrams.net" modified="2023-08-20T16:03:44.193Z" agent="Mozilla/5.0 (Windows NT 10.0; Win64; x64) AppleWebKit/537.36 (KHTML, like Gecko) Chrome/116.0.0.0 Safari/537.36" etag="uvqMKgfJkah4w0YYdZN-" version="21.6.8" type="device">
  <diagram name="Страница — 1" id="Y9XFmytYKOozws4Vm1hj">
    <mxGraphModel dx="1728" dy="925" grid="1" gridSize="10" guides="1" tooltips="1" connect="1" arrows="1" fold="1" page="1" pageScale="1" pageWidth="827" pageHeight="1169" math="0" shadow="0">
      <root>
        <mxCell id="0" />
        <mxCell id="1" parent="0" />
        <mxCell id="shYyjLh4EtHOCK-2yJdz-33" style="edgeStyle=orthogonalEdgeStyle;rounded=0;orthogonalLoop=1;jettySize=auto;html=1;entryX=0.4;entryY=0.1;entryDx=0;entryDy=0;entryPerimeter=0;" edge="1" parent="1" source="shYyjLh4EtHOCK-2yJdz-1" target="shYyjLh4EtHOCK-2yJdz-21">
          <mxGeometry relative="1" as="geometry" />
        </mxCell>
        <mxCell id="shYyjLh4EtHOCK-2yJdz-1" value="" style="rounded=0;whiteSpace=wrap;html=1;fillColor=#dae8fc;strokeColor=#6c8ebf;dashed=1;dashPattern=12 12;" vertex="1" parent="1">
          <mxGeometry x="150" y="180" width="200" height="460" as="geometry" />
        </mxCell>
        <mxCell id="shYyjLh4EtHOCK-2yJdz-2" value="&lt;font style=&quot;font-size: 18px;&quot;&gt;K8 active cluster&lt;/font&gt;" style="text;html=1;strokeColor=none;fillColor=none;align=center;verticalAlign=middle;whiteSpace=wrap;rounded=0;" vertex="1" parent="1">
          <mxGeometry x="150" y="190" width="100" height="30" as="geometry" />
        </mxCell>
        <mxCell id="shYyjLh4EtHOCK-2yJdz-4" value="&lt;font style=&quot;font-size: 15px;&quot;&gt;Mistral Api&lt;/font&gt;" style="rounded=1;whiteSpace=wrap;html=1;fillColor=#d5e8d4;strokeColor=#82b366;" vertex="1" parent="1">
          <mxGeometry x="191" y="240" width="126" height="40" as="geometry" />
        </mxCell>
        <mxCell id="shYyjLh4EtHOCK-2yJdz-5" value="&lt;font style=&quot;font-size: 15px;&quot;&gt;Mistral Notifier&lt;/font&gt;" style="rounded=1;whiteSpace=wrap;html=1;fillColor=#d5e8d4;strokeColor=#82b366;" vertex="1" parent="1">
          <mxGeometry x="190" y="425" width="127" height="40" as="geometry" />
        </mxCell>
        <mxCell id="shYyjLh4EtHOCK-2yJdz-6" value="&lt;font style=&quot;font-size: 15px;&quot;&gt;Mistral Engine&lt;/font&gt;" style="rounded=1;whiteSpace=wrap;html=1;fillColor=#d5e8d4;strokeColor=#82b366;" vertex="1" parent="1">
          <mxGeometry x="192" y="300" width="125" height="40" as="geometry" />
        </mxCell>
        <mxCell id="shYyjLh4EtHOCK-2yJdz-7" value="&lt;font style=&quot;font-size: 15px;&quot;&gt;Mistral Executor&lt;/font&gt;" style="rounded=1;whiteSpace=wrap;html=1;fillColor=#d5e8d4;strokeColor=#82b366;" vertex="1" parent="1">
          <mxGeometry x="192" y="360" width="125" height="40" as="geometry" />
        </mxCell>
        <mxCell id="shYyjLh4EtHOCK-2yJdz-8" value="&lt;font style=&quot;font-size: 15px;&quot;&gt;Mistral Monitoring&lt;/font&gt;" style="rounded=1;whiteSpace=wrap;html=1;fillColor=#d5e8d4;strokeColor=#82b366;" vertex="1" parent="1">
          <mxGeometry x="191" y="490" width="126" height="40" as="geometry" />
        </mxCell>
        <mxCell id="shYyjLh4EtHOCK-2yJdz-10" value="&lt;font style=&quot;font-size: 15px;&quot;&gt;Mistral Operator&lt;/font&gt;" style="rounded=1;whiteSpace=wrap;html=1;fillColor=#d5e8d4;strokeColor=#82b366;" vertex="1" parent="1">
          <mxGeometry x="192" y="580" width="125" height="40" as="geometry" />
        </mxCell>
        <mxCell id="shYyjLh4EtHOCK-2yJdz-21" value="&lt;font style=&quot;font-size: 17px;&quot;&gt;DR Postgres &amp;amp; RabbitMQ proxies&lt;/font&gt;" style="ellipse;shape=cloud;whiteSpace=wrap;html=1;fillColor=#e1d5e7;strokeColor=#9673a6;" vertex="1" parent="1">
          <mxGeometry x="170" y="690" width="422.5" height="150" as="geometry" />
        </mxCell>
        <mxCell id="shYyjLh4EtHOCK-2yJdz-34" style="edgeStyle=orthogonalEdgeStyle;rounded=0;orthogonalLoop=1;jettySize=auto;html=1;exitX=0.5;exitY=1;exitDx=0;exitDy=0;entryX=0.535;entryY=0.117;entryDx=0;entryDy=0;entryPerimeter=0;" edge="1" parent="1" source="shYyjLh4EtHOCK-2yJdz-25" target="shYyjLh4EtHOCK-2yJdz-21">
          <mxGeometry relative="1" as="geometry" />
        </mxCell>
        <mxCell id="shYyjLh4EtHOCK-2yJdz-25" value="" style="rounded=0;whiteSpace=wrap;html=1;fillColor=#dae8fc;strokeColor=#6c8ebf;dashed=1;dashPattern=12 12;" vertex="1" parent="1">
          <mxGeometry x="410" y="180" width="200" height="460" as="geometry" />
        </mxCell>
        <mxCell id="shYyjLh4EtHOCK-2yJdz-26" value="&lt;font style=&quot;font-size: 18px;&quot;&gt;K8 standby cluster&lt;/font&gt;" style="text;html=1;strokeColor=none;fillColor=none;align=center;verticalAlign=middle;whiteSpace=wrap;rounded=0;" vertex="1" parent="1">
          <mxGeometry x="410" y="190" width="100" height="30" as="geometry" />
        </mxCell>
        <mxCell id="shYyjLh4EtHOCK-2yJdz-27" value="&lt;font style=&quot;font-size: 15px;&quot;&gt;Mistral Api&lt;/font&gt;" style="rounded=1;whiteSpace=wrap;html=1;fillColor=#f5f5f5;strokeColor=#666666;fontColor=#333333;" vertex="1" parent="1">
          <mxGeometry x="451" y="240" width="126" height="40" as="geometry" />
        </mxCell>
        <mxCell id="shYyjLh4EtHOCK-2yJdz-28" value="&lt;font style=&quot;font-size: 15px;&quot;&gt;Mistral Notifier&lt;/font&gt;" style="rounded=1;whiteSpace=wrap;html=1;fillColor=#f5f5f5;strokeColor=#666666;fontColor=#333333;" vertex="1" parent="1">
          <mxGeometry x="450" y="425" width="127" height="40" as="geometry" />
        </mxCell>
        <mxCell id="shYyjLh4EtHOCK-2yJdz-29" value="&lt;font style=&quot;font-size: 15px;&quot;&gt;Mistral Engine&lt;/font&gt;" style="rounded=1;whiteSpace=wrap;html=1;fillColor=#f5f5f5;strokeColor=#666666;fontColor=#333333;" vertex="1" parent="1">
          <mxGeometry x="452" y="300" width="125" height="40" as="geometry" />
        </mxCell>
        <mxCell id="shYyjLh4EtHOCK-2yJdz-30" value="&lt;font style=&quot;font-size: 15px;&quot;&gt;Mistral Executor&lt;/font&gt;" style="rounded=1;whiteSpace=wrap;html=1;fillColor=#f5f5f5;strokeColor=#666666;fontColor=#333333;" vertex="1" parent="1">
          <mxGeometry x="452" y="360" width="125" height="40" as="geometry" />
        </mxCell>
        <mxCell id="shYyjLh4EtHOCK-2yJdz-31" value="&lt;font style=&quot;font-size: 15px;&quot;&gt;Mistral Monitoring&lt;/font&gt;" style="rounded=1;whiteSpace=wrap;html=1;fillColor=#f5f5f5;strokeColor=#666666;fontColor=#333333;" vertex="1" parent="1">
          <mxGeometry x="451" y="490" width="126" height="40" as="geometry" />
        </mxCell>
        <mxCell id="shYyjLh4EtHOCK-2yJdz-32" value="&lt;font style=&quot;font-size: 15px;&quot;&gt;Mistral Operator&lt;/font&gt;" style="rounded=1;whiteSpace=wrap;html=1;fillColor=#d5e8d4;strokeColor=#82b366;" vertex="1" parent="1">
          <mxGeometry x="452" y="580" width="125" height="40" as="geometry" />
        </mxCell>
      </root>
    </mxGraphModel>
  </diagram>
</mxfile>
